<?xml version="1.0" encoding="iso-8859-1"?>
<!-- Uploaded to: SVG Repo, www.svgrepo.com, Generator: SVG Repo Mixer Tools -->
<svg height="800px" width="800px" version="1.1" id="Capa_1" xmlns="http://www.w3.org/2000/svg" xmlns:xlink="http://www.w3.org/1999/xlink" 
	 viewBox="0 0 291.876 291.876" xml:space="preserve">
<g>
	<path style="fill:#010002;" d="M150.737,10.017l21.18,94.977c1.501,6.723,8.295,11.901,15.175,11.563l99.181-4.835
		c6.875-0.332,7.511,1.991,1.42,5.2l-85.573,45.052c-6.092,3.209-9.877,11.27-8.452,18.014l21.441,101.15
		c1.43,6.734-0.734,7.713-4.83,2.165l-54.842-74.211c-4.096-5.542-10.731-5.542-14.832,0l-54.842,74.211
		c-4.096,5.548-6.255,4.569-4.83-2.165l21.441-101.15c1.43-6.739-2.339-14.838-8.414-18.085L4.165,113.876
		c-6.075-3.253-5.428-5.488,1.447-4.993l103.353,7.386c6.875,0.495,13.657-4.558,15.159-11.281l21.18-94.977
		C146.804,3.294,149.235,3.294,150.737,10.017z"/>
</g>
</svg>